<?xml version="1.0" encoding="utf-8"?>
<!-- Generator: Adobe Illustrator 28.0.0, SVG Export Plug-In . SVG Version: 6.00 Build 0)  -->
<svg version="1.1" id="Avatar" xmlns="http://www.w3.org/2000/svg" xmlns:xlink="http://www.w3.org/1999/xlink" x="0px" y="0px"
	 viewBox="0 0 1440.4 1440.5" style="enable-background:new 0 0 1440.4 1440.5;" xml:space="preserve">
<style type="text/css">
	.st0{fill-rule:evenodd;clip-rule:evenodd;fill:#F7C662;}
	.st1{fill-rule:evenodd;clip-rule:evenodd;fill:#73585E;}
	.st2{fill-rule:evenodd;clip-rule:evenodd;fill:#74585E;}
	.st3{fill-rule:evenodd;clip-rule:evenodd;fill:#F9C5B1;}
	.st4{fill-rule:evenodd;clip-rule:evenodd;fill:#CA7565;}
	.st5{fill-rule:evenodd;clip-rule:evenodd;fill:#D37A69;}
	.st6{fill-rule:evenodd;clip-rule:evenodd;fill:#F3BDAA;}
	.st7{fill-rule:evenodd;clip-rule:evenodd;fill:#D27969;}
	.st8{fill-rule:evenodd;clip-rule:evenodd;fill:#D17D6E;}
	.st9{fill-rule:evenodd;clip-rule:evenodd;fill:#CD7B6B;}
	.st10{fill-rule:evenodd;clip-rule:evenodd;fill:#CE7969;}
	.st11{fill-rule:evenodd;clip-rule:evenodd;fill:#CC7868;}
	.st12{fill-rule:evenodd;clip-rule:evenodd;fill:#CA7566;}
	.st13{fill-rule:evenodd;clip-rule:evenodd;fill:#D37F70;}
	.st14{fill-rule:evenodd;clip-rule:evenodd;fill:#CB796A;}
	.st15{fill-rule:evenodd;clip-rule:evenodd;}
	.st16{fill-rule:evenodd;clip-rule:evenodd;fill:#010000;enable-background:new    ;}
	.st17{opacity:0.998;fill-rule:evenodd;clip-rule:evenodd;fill:#4A3136;enable-background:new    ;}
	.st18{fill-rule:evenodd;clip-rule:evenodd;fill:#412A2E;}
	.st19{opacity:0.994;fill-rule:evenodd;clip-rule:evenodd;fill:#412A2E;enable-background:new    ;}
	.st20{fill-rule:evenodd;clip-rule:evenodd;fill:#422B2F;}
	.st21{fill-rule:evenodd;clip-rule:evenodd;fill:#743340;}
	.st22{fill-rule:evenodd;clip-rule:evenodd;fill:#4B3236;}
	.st23{fill-rule:evenodd;clip-rule:evenodd;fill:#D27A6A;}
	.st24{fill-rule:evenodd;clip-rule:evenodd;fill:#FCFBFB;}
	.st25{fill-rule:evenodd;clip-rule:evenodd;fill:#DEEBEA;}
	.st26{fill-rule:evenodd;clip-rule:evenodd;fill:#DCEBEC;}
	.st27{fill-rule:evenodd;clip-rule:evenodd;fill:#D3806F;}
	.st28{fill-rule:evenodd;clip-rule:evenodd;fill:#020101;}
	.st29{fill-rule:evenodd;clip-rule:evenodd;fill:#FDFBFB;}
	.st30{fill-rule:evenodd;clip-rule:evenodd;fill:#DBE9EA;}
	.st31{fill-rule:evenodd;clip-rule:evenodd;fill:#DCE9E9;}
	.st32{fill-rule:evenodd;clip-rule:evenodd;fill:#010101;}
	.st33{fill-rule:evenodd;clip-rule:evenodd;fill:#D47F6E;}
	.st34{fill-rule:evenodd;clip-rule:evenodd;fill:#D27A69;}
	.st35{fill-rule:evenodd;clip-rule:evenodd;fill:#D47C6B;}
	.st36{opacity:0.76;fill:#E6D5BF;}
</style>
<path id="Fundo" class="st0" d="M719.2,1440.7L719.2,1440.7C321.4,1440.7-1,1118.3-1,720.5l0,0C-1,322.7,321.4,0.2,719.2,0.2l0,0
	c397.8,0,720.2,322.5,720.2,720.2l0,0C1439.5,1118.3,1117,1440.7,719.2,1440.7z"/>
<g id="Pele">
	<path class="st1" d="M1000,916c0.8,1.3,2.1,0.3,2.5,1.8c0.5,1.7,1,3.3,1.5,5c0.3,0.9,4.9,10,5.9,10c3.6,8.7,5.3,18.6,7.6,27.7
		c2.5,9.8,5,19.6,7.3,29.4c2.5,10.6,4.9,21.1,7.3,31.7c1.1,5.2,2.2,10.4,3.3,15.6c1,4.7,2.7,9.8,2.7,14.5c0,4.1,1.4,8.5,1.9,12.6
		c0.6,4.4,1.1,8.8,1.6,13.2c0.9,8.4,1.8,16.9,2.7,25.3c2,18.3,6.3,36.9,7.8,55.2c1.2,14,1.1,18.5,1.5,27.6c0.2,4.7-0.1,9.3,0,13.9
		c0.1,2.9-0.9,5.9-5,5.3c-9.9-1.6-19.4-3.1-28.7-7.1c-5.2-2.3-5.6-4.7-7.6-9.5c-1.9-4.6-4.9-8.6-8-12.4
		c-6.4-7.7-13.4-14.9-20.5-21.9c-4.5-4.4-15.7-11.1-13.3-18.4c1.8-5.6,3.9-11.2,4.1-17.2c0.2-6.2-1.7-12.2-2.1-18.3
		c-0.5-7.4,1.4-14.8,0.2-22.1c-0.3-1.7-1.7-8.5-4.7-5.1c-0.6,0.7-0.8,1.6-1,2.5c-0.6,4.2,0.4,8.7-0.9,12.7c-1,2.9-3,5.2-4,8.1
		c-0.9,2.6-0.8,5.5-1,8.2c-0.2,2.8-0.8,5.3-2,7.8c-1.2,2.6-3.4,5.1-3.9,7.9c-0.3,1.6,0,3.3-0.5,4.9c-1.1,3.4-3.3,2.3-5.3,0.4
		c-2.7-2.5-6.1-3.7-8.9-6.1c-1.6-1.3-2.9-2.9-4.6-4.1c-2.2-1.5-4.9-2.2-7.4-3.3c-4.4-1.9-8-5.3-12.1-7.9c-7.9-5.1-17.5-7.4-25-13.2
		c-2.4-1.8-4.6-4-7.4-5c-2.9-1-6-0.6-9-0.2c0.1,0-0.2-9-0.3-9.9c-0.1-4.1-1.4-10,0.9-13.6c0.9-1.4,2.1-2.4,3.4-3.4
		c10.6-8.7,20.1-18.6,29.4-28.6c9-9.6,20.4-16.9,30.2-25.7c5.4-4.8,9.5-10.3,14.3-15.7c4.6-5.1,11.3-7.8,15.7-13.2
		c3.6-4.4,5.4-6.6,8.8-11.3c1.2-1.7,2.6-3.3,3.9-4.9c3.1-3.8,5-6.1,7.8-10.2c0.2-0.2,1.4-2.3,1.5-2.5c0.5-0.8,2.6-5.1,4-8.1
		c0.7-1.5,1.3-3.7,1.9-5.3C996.8,932.6,999.7,921.2,1000,916z"/>
	<path class="st2" d="M502,1001.8c11.1,10.7,39.7,33.7,40.5,35c1,1.8,2.2,3.5,3.5,5c4.7,5.4,9.7,10.4,15,15c0,0.3,0,0.7,0,1
		c0,8.3,0,16.7,0,25c-1.3,0-2.7,0-4,0c-2.7,1.4-5.7,2.4-9,3c-3.5,2-7.2,3.8-11,5.5c-1.9,1.4-3.6,3.1-5,5c-9.3,4.3-18.7,8.7-28,13
		c-2.4,3-5.4,5-9,6c-2.4,3-5.4,5-9,6c-2.5,3.1-5.5,5.2-9,6.5c-0.7,0-1,0.3-1,1c-2.6-2.6,1.2-18.7,2-24c0.6-0.2,2.9-20.4,4.5-30
		c0.7-0.7,2.7-9.3,3-13c0.7-0.7,2.7-10,3-14c2.1-2.9,3.1-6.2,3-10c0.7-0.7,1.3-1.3,2-2c0.5-3,0.7-6,0.5-9c1.3,0.2,4.2-9,4.5-13
		C500.5,1012,500.1,999.2,502,1001.8z"/>
	<path class="st3" d="M874.5,1062.2c0.3,3,0.4,11.9,0.4,12.5c0,0.8,0.1,7.3,0.1,10c-0.3,0-0.7,0-1,0c-1-0.1,2.7,22.7,2.5,33.4
		c0.3,20.3-4.2,39.9-2.5,59.6c-0.3,0.7,1,10,0.3,14.3c-1-0.1,0.1,13.3-0.2,19c-0.4,0.5-6,23-7.7,25.5c-4.8,10.6-16.7,36.1-16.5,37.5
		c-2.6,4.9-5.3,5.8-8.7,10.3c-1.4,18.8-15.2,18.3-22.5,25c-14.8,14.9-28.6,30.1-43.2,45.5c-8.6,6.6-15.7,13.2-24.4,19.9
		c-4,2-15.4,8.9-15.9,9.9c-11.9,4.9-25.8,8-38.5,10.8c-4.1,0.8-8.5,1.9-12.4,0.4c1.8,3.2-6.7-5.3-9.4-5.1c-4.8-3.2-9.5-6.7-14-10.5
		c-3.8-0.8-6.8-2.8-9-6c-4.8-1.8-8.8-4.8-12-9c-1.3-0.3-2.7-0.7-4-1c-4.7-4.7-9.3-9.3-14-14c-1.3-0.3-2.7-0.7-4-1
		c-8.2-8.2-16.3-16.3-24.5-24.5c-1.8-4.8-4.8-8.8-9-12c-0.8-3.8-2.8-6.8-6-9c-3.4-7.5-6.9-14.8-10.5-22c-2.2-4.9-3.9-9.9-5-15
		c-1.7-3.7-2.5-7.7-2.5-12c-0.7-0.7-1.3-1.3-2-2c-0.2-4.5-0.7-8.8-1.5-13c-0.3-0.8-0.8-1.5-1.5-2c-0.5-15.3-0.7-30.7-0.5-46
		c0.3-0.7,0.7-1.3,1-2c0.7-1.3,1.3-2.7,2-4c1,0.1,0.3-11.8,3.2-16.5c0.2,1.2,2.5,7.5,3.8,8c1.3,2.8,3,5.3,5,7.5
		c2.8,7.3,8.6,10.8,15.1,15.8c4,2.6,7.2,4.3,11.2,7c4.9,0.2,9.9,3.4,13,7.2c5.8,1.4,11.6,3.7,16.5,7c31.9,8.1,60.4,6.4,91.8-3.7
		c10-5,18.7-8.2,28.7-13.2c2.6-3.3,7.3-6.1,11.4-7.5c3.3-2.7,8-3.3,11.3-6c1.7-0.3,10-11.2,11.7-11.5c20.2-17.3,30.4-26.2,47.6-46.5
		c1.6-0.8,5.2-6.1,7-7.6c1.5-4.5,5.7-8.8,8.2-12.9c6.4-7.8,22-30.1,24.2-33.2C870.6,1075.8,873,1066.6,874.5,1062.2z"/>
	<path class="st4" d="M866.3,1224.1c-0.6,8.3-7,25.6-10.1,32.7c-29.3,66.7-83.6,111.5-147.7,146.2c-1.9,1-3.9,2.1-6.1,2.2
		c-2,0.1-4-0.7-5.9-1.5c-5.5-2.4-10.6-5.6-15.3-9.3c-0.5-0.4-3.3-2.2-3.1-2.9c0.3-1.1,2.8,0.1,3.5,0.2c3,0.7,6,1.1,9.1,1.3
		c12.2,0.7,24.5-2.4,35.5-7.7c15.1-7.2,43.1-31.3,55.9-42.2c19.4-16.6,24-20.6,38.8-41.4c16.4-22.9,26-39,39.6-63.6
		C860.8,1238.3,866.3,1223.9,866.3,1224.1z"/>
	<path class="st5" d="M561.2,1048.8c0.4-0.2,1,0.6,1.8,1.8c0.9,1.2,1.5,2.9,2.7,3.8c2.6,2.2,6.6,7,10,7.7c1.3,0.3,4.3,5.2,5.6,5.5
		c4.3,2.6,7.7,6.8,9.1,6.6c3.6,2.9,6.1,3.5,9.1,5.8c5.3,4.4,7,6,12,9.5c4,3.3,19.2,12,21.9,11.8c-0.1,0.9,5.4,3.6,6.2,4.1
		c6.9,2.1,20,7.3,24.2,8.5c10.3,3.2,19.6,6.2,30.6,7c0,1,35.5,2.5,54.2,1.5c8.2-2.3,28.5-3.5,29.2-4.8c5.8-1.7,10.2-4.2,15.7-6.2
		c0.7-0.7,2-4.1,2.7-4.8c4.3-0.2,10.5-0.1,13.5-2.9c5.1-2.7,8.5-6.1,14.1-8c2.9-2.9,7.8-6.9,11.6-8c5.4-3.7,9.3-4.1,13.9-8.7
		c1.1,0.2,6.4-4.4,9.5-6c3.3-2.8,11.4-9.6,15.5-10.8c0.1,0-1.5,7.3-1.6,7.9c-0.8,2.7-2.1,5.1-3.5,7.6c-3,5.6-6.3,11.1-9.8,16.4
		c-9.3,14.3-19.5,28-30.2,41.2c-7.9,9.7-17.4,18.8-26.4,27.6c-10.5,10.3-21.2,20.4-33.3,28.8c-12.2,8.4-25,15.9-38.3,22.6
		c-9.4,4.7-19,8.7-29.2,11.4c-20.8,5.5-42.6,5.6-63.6,1.1c-25.8-5.5-49.6-16.1-66.6-37c-3-3.6-5.6-7.5-8-11.5
		c-3.5-5.9-2.7-12.9-2.7-19.5c0-8-0.1-16.1-0.2-24.1c-0.1-15.9-0.1-31.7-0.1-47.6c0-8,0-16,0-24c0-4,0.1-8,0-12
		C560.8,1049.7,560.9,1049.1,561.2,1048.8z"/>
	<path class="st6" d="M586.6,509c-3.5,4.6-7,9.1-10.4,13.7c-8.1,10.7-12.6,18.6-27.3,21.5c-8.4,1.7-17,2.4-25.6,2.2
		c-6-0.1-15.2-2.2-20.2,1.6c8.6-6.5,19.5-10,29.1-15c4.3-2.3,54.7-30.7,54.3-31.5C587.3,503.1,587.9,507.4,586.6,509z"/>
	<path class="st7" d="M1102.3,682.2c1.5,1.7,2.7,8.8,7.3,12.2c1.7,1.3,2.2,3.7,3.5,5.4c1.1,1.4,1.7,3.1,2.2,4.7
		c11.4,37,8.5,75.5-14.8,106.4c-11.4,15.1-27.6,34.5-46.2,38.2c-7.5,1.5-19.1,2.2-25.8-1.9c-1.5-0.9-7.7-5.2-8.4-6.8
		c-0.8-2-0.8-5.2-0.8-7.4c0.1-4.6,3.3-9.5,5.2-13.6c7.7-17.4,25.4-45.7,26.9-50c0.7-1.9,2-5.8,3.4-8.5c1.1-2.2,2.8-4,4.3-5.8
		c18.6-21.9,30.4-48.4,42.4-74.5C1101.6,680.6,1102.3,682.2,1102.3,682.2z"/>
	<path class="st8" d="M994.6,904.1c-0.2,5.1,3.1,9.1,5.3,13.4c0.1,0.2-0.2,1-0.2,1.3c-0.1,0.5-0.2,1-0.3,1.5c-0.2,1-0.3,2-0.5,2.9
		c-0.3,1.7-0.6,3.5-1.1,5.2c-4.3,17.6-14.2,33.8-26.7,46.7c-5,5.2-10.6,9.7-16.7,13.6c-1.6,1-3.5,2.1-4.4,3.8
		c1.5-2.3,3.1-4.5,4.5-6.8c1.9-3.1,3.6-6.2,5.4-9.3c0.4-0.7,0.8-1.4,1.2-2c0.6-1.1,1.3-2.2,1.9-3.2c1.1-1.9,2.3-3.7,3.4-5.5
		c2-3.3,4-6.6,6.1-9.8c2.1-3.1,4.3-6.2,6.3-9.4c1.9-3.1,3.9-6.1,5.5-9.4c0.5-0.9,1-1.9,1.5-2.8c0.3-0.5,0.5-1,0.8-1.5
		c0.2-0.4,0.4-1.1,0.8-1.5c0.8-1.6,1.4-3.3,2-5c1.1-3.6,1.9-7.3,2.7-11c0.4-2,0.8-4,1.3-6c0.2-0.8,0.4-1.7,0.6-2.5
		C994.1,905.8,994.6,904.9,994.6,904.1z"/>
	<path class="st3" d="M858.7,439.5c3.2,6,14.2,14.4,17.3,19.9c7.5,13.3,5.2,25.8,14.3,38c9.6,12.8,17.5,25.7,28.6,37.1
		c15,15.5,30.3,30.5,47.2,43.8c4.2,3.3,7.9,7.2,11.7,11c3.3,3.3,5.7,4.9,5.6,9.9c-0.1,5.6,3,10.2,3,15.8c2.5,0.7,3.1,5.6,3.1,8.2
		c-0.1,5.2,0.8,8.2,0.8,13.3c0,1.3,6.6,7.9,2.3,8.4c-1.3,0.2-1.1,4,0.2,3.8c0.6,0,4.1,49.7,0,55c-1.5,3.3-6.4,43.3-7.5,45
		c-2.7,12.2-18.1,36-18.7,37.7c-2.5,6.7-6.3,11.6-9.9,17.7c-3.5,5.9-7,10-10.9,15.6c-4.3,6-8.2,11-14,15.5c-1.7,1.3-3.8,2.8-4.9,4.6
		s3,3.4,4.9,3.5c0.8,0,4.2-2.4,5-2.8c0.9-0.5,1.6,0.6,2.3-0.1c2-2,2.4,0.6,4.9-0.4c6.2-2.5,12.5-4.9,18.7-7.4
		c13.8-5.7,27-11.6,38.3-21.2c6.9-5.8,14.1-10.3,20.9-16.6c7.3-6.8,14.9-14.1,20.7-22.4c1.3-1.9,2.5-3.2,4.3-4.7
		c1-0.9,9-10.7,8.1-6.8c-3.7,15.3-14.8,33.7-23.2,46.6c-3.4,5.2-6.4,10.6-9,16.2c-3.8,8.2-6.2,14.8,2.8,21.8
		c3.4,2.6,7.2,2.9,11.5,3.5c20.4,2.8,33.3-6.3,46.8-19.9c8.8-8.8,16.8-18.4,22.7-29.4c13-24.4,16.7-53.6,11.8-80.7
		c-1.2-6.5-3.3-13-6.7-18.7c-1.7-2.8-3.8-5.9-6.4-7.9c-2.4-1.9-4.9-2.8-6-6c0.5-5.4,4.5-16.9,9.3-20.4c1.7-0.7,11.9-1,13.6-0.3
		c7.7,3.2,13.9,6.1,19,13.2c5.4,7.4,6.8,16.7,7.2,25.7c0.5,11.4,1.2,23.1,0.4,34.5c-0.8,11-2.1,23.2-4.6,33.9
		c-2.6,11.4-6.2,21.1-10.5,31.9c-13.8,34.3-43,62.2-73.4,81.9c-6.3,4.1-24,12-28.5,13.3c-4,1.2-17.8,9.3-19.6,1.3
		c-1.2-5.5-2.7-10.8-4.5-16c-1.9-1.3-3.8-1.3-5.5,0c-0.7,0.3-1.2,0.7-1.7,1.6c-0.5,0.9-0.6,2.6-0.8,3.6c-0.3,1.2-0.6,2.4-0.9,3.6
		c-0.6,2.3-1.3,4.7-2,7c-1.4,4.7-2.7,9.3-3.9,14c-7.6,28.9-25.3,51.9-41.8,76.1c-4.1,6-9,11-14.4,15.8c-4.1,3.7-8.4,7.3-12.5,11.1
		c-5.3,4.9-10.3,10-15.5,14.9c-5.4,5.2-11.1,10.1-16.8,15.1c-5.7,5-11.2,10.3-16.9,15.3c-0.6,0.5-1.2,1-1.8,1.5
		c-20.7,17.7-44.3,31.3-68,44.6c-24.4,13.6-52.3,18.3-80,18.5c-26.7,0.2-53.5-5.2-78.3-15.1c-13-5.2-25.6-11.6-37.3-19.3
		c-13-8.6-24.9-18.7-37-28.6c-11.8-9.6-23.3-19.6-35.5-28.7c-5.6-4.2-11.3-8.2-16.9-12.6c-5.6-4.4-10.7-9.3-16-14
		c-1.1-1-2.3-2-3.5-2.8c-0.9-0.7-2-1.3-2.4-2.4c-1.1-2.7-1.8-8.7-1.7-11.4c0.6-10.1,1.9-17.6,1.7-27.7c-0.1-9.2-1.6-18.2-2.6-27.4
		c-1.9-18.1-3.8-33.9-7.7-51.7c-4.8-21.6-5.2-46.7-8.5-68.5c-1.4-9-3.6-17.9-5.4-26.8c-4-19.4-8.6-38.4-13.4-57.5
		c-1.8-7.1-4.6-17.8-5.7-25.1c-1-6.9-3.1-13.5-3.4-20.5c-0.5-15,7.4-27.9,8.7-42.8c3.3-9.4,6-19,8-29c2-3.6,3.4-7.5,4.9-11.3
		c0.3-0.7,0.6-1.4,1.2-1.9c0.7-0.6,0.7-6,1.5-6.2c5.6-1.3,16-7.1,12.2-4.6c-2.2,1.5,5.8-5.1,8.5-5.4c2.2-0.2,9.9-3.8,12.1-1.5
		c0-2.3,12.8-5,14.5-4.5c3.3,1-4.1,28.6-2.1,28.8c20.3,1.8,37.5-4,57.7-10.4c17.4-4.1,28.7-9.2,45.7-13.9
		c17.2-4.7,30.4-13.1,45.9-21.7c17.4-9.7,35.9-17.8,52.4-29.1c13.5-9.2,23.2-19.4,35.9-29.7c16.5-13.4,33.5-33.2,47.7-49
		c11.6-12.9,24.3-26.9,32.5-42.2c1.7-3.2,9.9-1.6,10.1,1.7C849.4,423.2,854.9,432.4,858.7,439.5z"/>
	<path class="st9" d="M475.8,596.8c-0.2,0.7-0.4,1.4-0.6,2.1c-2,5.3-6.1,9.3-7.6,14.9c-1.9,7-3.4,14.2-4.2,21.4
		c-0.5,4.1-0.3,8.3-1.5,12.3c-1.2,4.1-3.1,8.1-4.6,12.1c-1.3,3.6-7.3,4.2-8.4,0.8c-5.2-16.1-5.4-32-6.8-48.6
		c-0.7-7.9-1.9-15.8-1.9-23.7c0.1-10.6,3.8-19.1,8.7-28.3c1.9-3.6,3.9-7.1,6-10.6c1.3-2.1,4.5-9.8,6.8-10.6c4.9-1.8,12,37.3,13,41.8
		C475.8,585.8,477,591.5,475.8,596.8z"/>
	<path class="st9" d="M514.9,554c0.1,1-1.8,1.7-3.2,1.8c-4.5,0.4-37.5,32.7-36.7,33.6c-6,1.5-10.7-4.5-9.3-9.4
		c0.7-2.6,2.6-4.7,4.7-6.6c4.8-4.3,10.7-7.6,16.6-10.8c5.5-3,10.9-6,16.8-8.4c2.9-1.2,6.1-2.3,9.3-1.7c0.6,0.1,1.3,0.3,1.6,0.9
		C514.8,553.8,514.9,553.8,514.9,554z"/>
	<path class="st9" d="M573.9,499.2c1.1,0.1,2.3,0.1,3.4,0.2c2.1,0.2,3.5,1.5,4.1,3.8c1.2,3.4,0.7,6.4-1.3,8.8
		c0.4-2.4-70.6,45.2-71.9,48.1c0,0.6-47.6,18.3-51.9,20.6c-1.1-0.6,0.6-4.9,2-7c6.5-2.2,24.4-12.2,26.2-15.6
		c5.1,0,20.8-10.7,22.7-12.2c3.2-2.1,6.1-4.7,8.9-7.6c6.1,0.9,45.2-25,47.2-28.9C566.3,505.5,569.8,502,573.9,499.2z"/>
	<path class="st9" d="M488,576c-2.8,10.2-19.9,74.6-27,96.2c-1.6,5,1.1,12.5,1.7,17.4c0.7,6.2,1.5,12.4,2.5,18.6
		c5,32.8,24.7,113.8,17.1,116.8c-3.6-0.3-12.8-53.9-19.8-71.1c-7.4-18.2-12.7-37-16.7-56c-1.9-9-3.3-18.4-1.9-27.9
		c1.6-10.5,8.6-18,13.8-27.7c6.5-12,7.5-24.7,11.7-37c2.1-6.1,6.6-11.6,9-17.5C480.5,583,479.3,577.5,488,576z"/>
	<path class="st10" d="M843,410c2.4,6.1,8.9,12.2,12.8,17.4c9.8,13.1,19.7,26.1,29.6,39.2c13.7,18,27.1,36.2,40.9,54.1
		c6.9,8.9,14.2,17.6,21,26.6c6.2,8.2,15.1,14.8,22.4,22.3c7.5,7.6,14.5,15.5,21.8,23.2c6.5,6.8,14.6,12.6,18.5,21.4
		c3.5,7.9,4.1,19.2,2.5,27.6c-0.3,1.3-4.5-5.9-4.6-6c-2.2-2.8-5.9-5.1-8.4-7.9c-13.7-16-27.6-31.7-41.4-47.6
		c-8-9.1-15.9-18.3-23.9-27.5C920.1,536.3,904,521,892,503c-9.8-14.8-18.1-30.3-28-45.1c-7.8-11.6-13.6-24.2-19.3-36.9
		c-0.8-1.7-1.6-3.2-1.9-5.1C842.5,414.2,843.6,411.2,843,410z"/>
	<path class="st10" d="M902.4,477.5c1.8,4,6.2,7.9,8.9,11.2c6.9,8.4,13.7,16.8,20.6,25.2c9.5,11.6,18.9,23.3,28.5,34.9
		c4.8,5.8,9.9,11.3,14.6,17.1c4.3,5.3,10.3,9.3,15.3,14c5.1,4.8,10,9.8,15,14.7c4.4,4.3,9.8,7.8,12.8,13.7
		c2.6,5.2,3.6,12.9,2.9,18.8c-0.1,0.9-3.1-3.8-3.2-3.9c-1.5-1.8-4-3.1-5.7-5c-9.4-10.2-19-20.2-28.6-30.3
		c-5.5-5.8-11-11.7-16.5-17.5c-9.7-10.4-20.7-20.1-29.2-31.8c-6.9-9.6-13-19.8-20-29.4c-5.5-7.5-9.8-15.9-14-24.3
		c-0.6-1.1-1.2-2.1-1.4-3.4C902.3,480.5,902.8,478.5,902.4,477.5z"/>
	<path class="st10" d="M979,591.2c1,5.8,9.9,7.3,10.2,13.5c0.9,0.7-0.3,5.8,0.6,6.5c0.3,8.8,2.9,27.5,3.8,28c1,20.5,5.6,56-0.6,61
		c0-18.8-0.3-37.6-2.3-56.3c-1-9.4-2.5-18.8-4.5-28.1c-0.9-4.1-1.8-8.1-3.7-11.9C980.2,599.5,979.8,595.8,979,591.2z"/>
	<path class="st11" d="M583,600.7c-9.1,3.3-18.5,5.5-27.8,8.1c-10.5,2.9-20,5.4-31,5.8c-4.8,0.2-14.3,1.2-17-3.8
		c7.8,0.1,15.6,0,23.4-0.5c0.6,0,1.3-0.1,1.9-0.4c0.5-0.3,0.9-0.9,1.4-1.3c0.5-0.3,1.2-0.4,1.8-0.5c6.2-0.8,12.4-1.5,18.6-2.3
		c0.9-0.1,1.8-0.2,2.7-0.3C565.7,604.3,574.5,603.3,583,600.7z"/>
	<path class="st12" d="M1115,652.8c3,1.6,6,3.1,9,4.5c1.7,0.8,3.3,1.6,4.9,2.6c2.4,1.6,4.4,3.6,6.3,5.8c1.7,2,3.3,4.1,4.8,6.2
		c1.2,1.8,2.4,3.6,3,5.7c0.7,2,1.2,4.3,0.5,6.3c0.3-0.9-3.6-4.8-4.2-5.5c-1.6-1.7-3.3-3.2-5.1-4.7c-3.7-3-7.2-6.2-11.9-7.4
		c-4.8-1.2-8.9-0.6-12.6,2.8c-0.8,0.8-1.8,1.5-2.6,2.3c-0.5,0.5-1.6,1.4-2.2,2.5c-0.1-0.8,0.1-2.1,0.3-2.9c0.3-1,0.5-2,0.8-3
		c0.5-2,1.1-3.9,1.6-5.8c1.2-3.9,2.4-7.7,3.8-11.5C1112.5,651.4,1113.7,652.1,1115,652.8z"/>
	<path class="st13" d="M1018,901.8c-3.3,1.3-6.7,1.7-10,0.4c-1.5-0.6-3.7-0.9-5-1c-2.7-0.5-4.2-0.6-6.9-0.4
		c2.1-4.8,3.5-9.7,4.5-14.8c0.1-0.7,0.3-1.5,0.7-2.1c0.7-1.2,2.1-1.7,3.4-1.8c1.2-0.1,3.2-0.2,4,1c0.3,0.4,0.4,0.9,0.5,1.4
		c0.7,2.4,1.5,4.8,2.1,7.2c0.4,1.5,0.8,3.1,1.2,4.6c0.3,1.4,0.4,2.6,1.5,3.6C1015,901,1016.4,901.6,1018,901.8z"/>
	<path class="st14" d="M1045.1,770.8c-4.9,8.1-13,15.1-19.6,21.8c-4.5,4.6-9.6,8.3-14.5,12.6c-5.9,5.1-11.5,10.4-18,14.7
		c-5.2,3.5-10.9,6.2-16.5,8.9c-5.2,2.5-10.4,4.9-15.6,7.4c-3.8,1.9-7.5,4-11.6,5.2c-4.4,1.4-9,1-13.4,1.9c-0.8,0.2-1.6,0.3-2.4,0.3
		c-1.9-0.2-5.6,0-5.6-2c1.8-1.9,5.3-1,7.6-1.2c4-0.5,7.3-3,10.8-5s7.1-2.5,10.9-3.8c6.6-2.3,15.5-4.4,20.8-9.3c4.3,0,7.3-2,9-6
		c3.8-0.8,6.8-2.8,9-6c4.8-1.8,8.8-4.8,12-9c3-0.1,5.1-1.3,6.6-3.7c0.3-0.6,0.8-1.1,1.3-1.5c2-1.8,4.8-5,7.2-5.1
		C1024.7,788.7,1042.8,772,1045.1,770.8z"/>
</g>
<g id="Roupa">
	<path class="st15" d="M719.2,1440.7L719.2,1440.7c-199.5,0-380.1-81.1-510.5-212.1c-1.9-1.9-3.8-3.9-5.7-5.8
		c-8.8-9,8.6-40.4,26-46.8c33.5-12.4,142.9-14.4,217.7-34c52.8-13.9,100.8,66.6,106.3,127.8c2.1,23,121.4,164.1,155,149.8
		c44.7-18.9,159.7-145.2,198.5-170.8c10.6-7,22.6-131.7,68.2-86.4c15.4,15.4,53.5,47.7,77.3,51.8c18.2,3.1,34.9-34.2,50.6-30.6
		c33.4,7.6,60.4,16.1,78.8,25.6c14.1,7.2,26.1,41,15.2,50.6c-5.6,5-11.4,9.9-17.2,14.7C1054.7,1378.3,894.3,1440.7,719.2,1440.7z"/>
	<path class="st16" d="M713.5,1435.1c-14.5,0-404.8-196.3-400.9-204.6c4.4-9.1,10.5-17.3,17.9-24.3c4-3.8,8.3-7.1,12.9-10.2
		c0.9-0.6,1.8-1.2,2.7-1.7c16-10,33.3-20.9,51.4-32.9c54.5-36,158.5-86.4,163.3-82.9c0.7,0.5,0.7,90.1,0.7,90.2
		c0,0.1-0.1,0.2-0.3,0.4c-0.2,0.4-0.6,1.4-0.8,1.9c-0.3,1.1-0.6,2-0.6,2.1c0,0.1-0.4,1.6-0.4,2c0,0.1-0.2,1-0.2,1.3
		c0,0.3-0.4,4-0.6,6.1c-1.4,11.5-3.4,30.9-2.8,42.1c1.3,26.4,8.6,46.5,13.7,59c10,24.7,29.6,45.3,49,63c19.1,17.4,40,33.3,62.5,46
		c6.6,3.8,13.4,9.5,21.1,9.8c9.9,0.3,31.6-15.7,40.1-21.1c27.6-17.6,52.1-40.4,73.5-65.1c8.9-10.3,16.2-21.3,24-32.3
		c3.9-5.5,7.9-10.9,11.2-16.7c7.6-13.4,12.3-28.2,15.5-43.2c3.3-15.4,5.7-31.2,7.2-46.8c1.6-16.9,1.7-32.2,0.9-49.2
		c-0.4-8.4,0.5-17.8-0.1-26.2c-0.9-12.7-1.2-21.5,0.5-24.1c5.9-8.7,26.4,10,61.6,33.5c24.6,16.5,46.2,38.6,67.2,59.3
		c0.3,0.3,0.6,0.6,0.8,0.8c3.7,3.8,7.1,8.2,8.2,13.4c0.4,1.7,0.5,3.5,1.1,5.1c2.1,5.3,12.4,7.5,17.2,8.4c4.8,1,9.7,1.3,14.4,2.6
		c4.7,1.3,8.6,4.1,12.5,6.8c1.1,0.8,2.1,1.6,2.7,2.8c2.2,4.9-4.2,12.9-7,16.7c-4,5.4-8.4,10.4-13,15.2c-13,13.8-27.2,26.5-41.6,38.8
		c-18.4,15.6-37.4,30.4-56.8,44.5c-21.2,15.4-42.9,30.1-65.2,43.9c-21.7,13.4-43.9,25.9-66.9,36.9c-19.8,9.5-40.4,18-61.7,23.5
		C737,1433,725.3,1435.1,713.5,1435.1z"/>
</g>
<g id="Cabelo">
	<path class="st17" d="M1054.7,1235.4c21.6,0.9,41.5,1.8,59.4,2.7c40.1,1.9,83.2-20.6,85.6-15c3.5,8.2,14,21.1,13.6,21.6
		c-34,32.1-71.2,60.9-111,85.9c-1.5,0.9-1.8-8.9-2.1-10.8c-1.4-6.9-11.3-43-17.4-39.5c-6.9,4-22.8,61.7-25.9,72.4
		c-0.6,2-1.5,5-3.4,6c-17.4,9.1-35.1,17.5-53.3,25.2c-1.5,0.7,29-31.1,42.3-67.8C1056.1,1278.2,1052.6,1235.3,1054.7,1235.4z"/>
	<path class="st17" d="M541.6,1418.6c-54.5-13.8-106.6-33.9-155.4-59.4c-5.3-2.8-7.7-40.2-15.4-68.8c-5.2-19.3-9.9-35.8-13.4-37.8
		c-4.3-2.5-16.3,22-18.1,43.5c-1.6,18.1,0.7,36.7-2.8,34.5c-53.2-33.5-101.4-73.2-144-119c-1.2-1.3,5.1-9.6,6.7-12
		c0.6-0.9,31.3,2.8,86,6.5c30.4,2.1,217.5,92.7,227.6,102.9c1.4,1.4,25.9,53,26.6,58.8C543.6,1398.2,544.3,1419.3,541.6,1418.6z"/>
	<path class="st18" d="M349.5,1273.6c-2.9,9.3-4.8,18.7-5.6,25.4c-1,0.3-14.8-36.9-14.4-57.3c2.3-1.6,8.3-19.9,6.3-23.5
		c0.8-3.8,4.3-12.3,3.8-13.3c2-2.9,13.9-33.9,12.5-38.1c4.4-3.4,6.6-17.9,9-21.4c-2-2.2,5.4-16.8,2.2-21.9
		c5.7-4.5,11.1-25.7,14.8-31.3c2.4-0.8,4.4-0.4,6,1.2c1.6,3.7,3.5,15.6,6.5,17.1c1.9,8.8-12.2,74.8-13.2,77.6
		c-2.7,2-3.4,11.6-7.2,13.6c0.1,5.5-2.5,31.7-3.1,40.2c-4.6,3.1-5.4,0.3-7.4,4.5c0.9,0.5-2.3,2.6-1.5,3.1
		C359.5,1259.2,350.5,1268.3,349.5,1273.6z"/>
	<path class="st19" d="M1111.9,1320.7c-0.8,0.8-1.3,1.9-1.2,3.1c-3.3,0.7-6.5,1.4-9.8,2.1c-4.3-13.3-9.1-26.4-15.3-38.8
		c-1-2-0.6-8.4-3.7-6c-0.7,0.6-3,4.4-3.6,6.1c-0.4,1-3.6-8.6-4.1-9.6c-1.1-2-1.5-4.4-1.7-6.7c-0.2-3.3,0.3-6.5,0.1-9.8
		c-0.1-3-0.7-6.2,0.9-8.8c1.2-1.9,3.6-3.3,3.6-5.6c0-0.7-0.2-1.3-0.4-2c-0.9-3.3-1-6.9-0.2-10.3c0.4-1.7,1-3.3,1.8-4.9
		c0.3-0.7,2.8-3.8,2.7-4.3c-1.4-6.3-1.6-12.6-0.6-19.1c3.6-2.8,4.7-6.1,3.1-9.8c2.1-4.9,3.5-9.8,4.4-15c3.1-2.8,5.3-2.3,6.8,1.5
		c-1,3,0,5.6,3.1,7.7c1.2,8.9,0.9,51.3,0.6,64c0,8.9-0.4,17.6-1.2,26.3c-0.3,2.7,3.7,4,4.3,6.3c0.2,0.8,0,1.6-0.1,2.4
		c-1.2,6.3,0.6,13,4.8,17.9c1.1,1.2,2.3,2.4,2.7,4c0.2,1,0.1,2,0.2,3C1109,1316.7,1110.1,1319.1,1111.9,1320.7z"/>
	<path class="st17" d="M871,190.8c-11.5-3.3-22.6-6.9-33.6-11.5c-37.3-15.5-75.5-28-115.5-33.8c-35.9-5.2-71.7-5.6-107.3,1.7
		c-6.3,1.3-12.6,2.8-18.9,4.5C517.2,172,432.1,208,380.9,273.5c-22.5,28.7-38.7,61.9-51.6,96.1c-21.3,56.7-32.6,116.5-51.9,173.8
		c-18.5,54.7-45.2,106.2-62.7,161.2c-7.3,23-12.4,46.4-16.4,70.2c-7,41.9-8.6,82.2,0.6,123.9c10.4,47.3,33.7,90.3,44.7,136.9
		c3.5,14.8,5.4,30.1,5.5,45.3c0,7.5-0.3,15-1.7,22.4s-4.2,14.3-6.9,21.3c-6.2,16-13,31.6-21.4,46.6c-7.1,12.8-17.8,23.2-24.3,36.3
		c-1.4,2.8,91.5,91.5,145.4,125.2c1.2,0.7,2.5-16.8,2.6-19.3c0.4-10.5,2.9-21.5-1.2-31.6c-1-2.6-2.5-5-3.2-7.8
		c-0.9-3.6-0.3-7.3-0.2-11c0.1-3.7-0.3-7.4-0.2-11.1c0.6-12.3,2.5-24.5,5.1-36.5c4.4-20.3,10-40.3,16.5-59.9
		c2.5-7.5,4.4-15.5,6.4-23.2c2.2-8.4,3.1-18.3,8.4-25.4c5-6.6,5.1,2.8,5.7,6.6c1.8,11.6,4,21.6,0.9,33.3c-4.2,16-8.5,32.4-13.9,48
		c-1.4,4.1-3.3,8.1-4.4,12.4c-1.1,4.6-0.5,9-0.4,13.7c0.1,3.4-0.6,6.7-1.9,9.8c-1.1,2.5-4.9,5.9-5.3,8.1c-0.2,1.3,1.2,4.1,1.5,5.5
		c1.2,7.1,0.8,14.3,1.7,21.4c1,7.8,2.7,15.5,4.6,23.1c2.5,9.7,5.3,19.4,7.7,29.2c1.2,5,2,10.1,3,15.1c1,4.6,3.1,8.8,4.7,13.2
		c4,10.9,12.6,14.3,22.7,19.1c22.1,10.4,135.1,58.9,140.4,43.8c2.3-6.8,0.6-14.8,0.2-21.7c-0.7-11.3-2.1-22.5-4.7-33.5
		c-3.8-15.9-9.4-31.1-15.1-46.4c-2-5.5-5.9-10.6-8.7-15.7c-4.1-7.5-7.6-15.5-10.7-23.5c-6.4-16.3-15.4-31.3-20.7-48
		c-6-19-9-39-9.2-58.9c-0.2-20,3.3-39.5,6.3-59.2c2.5-17.2,5.4-34.4,9.8-51.3c3.1-12,8-23.6,10.3-35.9c3.9-20.2,3.4-40.7,2.1-61.1
		c-1.2-21-3.7-41.9-7.4-62.6c-0.9-5-2-9.9-2.6-14.9c-2.5-20.7-5.2-41.4-8.5-62c-3.3-20.8-7.7-41.3-12.3-61.8
		c-4.5-20.1-8.4-40.4-13.2-60.3c-4.3-17.7-3.5-36-1.8-54c0.6-6.4,1.4-12.8,2.7-19.1c1.4-7,1.5-14.4,3.5-21.3
		c1.5-5.3,3.1-10.5,4.6-15.8c1.2-4,1.7-9.2,4.9-12.2c1.7-1.6,4-2.3,6.1-3.1c9.5-3.5,17.9-9.4,26.3-15.1
		c14.2-9.5,28.9-18.5,43.8-26.9c8.9-5,18-10,27.9-12.6c1-0.3,2.3-0.3,2.6,0.6c0.2,0.6-0.1,1.2-0.4,1.7c-3.6,6.6-7.4,13.4-13.6,17.7
		c-5.9,4.1-13.1,5.4-20,7.2c-23.1,6-44.5,18.4-61.6,35.1c-5.6,5.5-10.9,11.9-11.4,20c-0.1,0.9-0.1,1.8,0.3,2.6
		c0.9,2,3.6,2.4,5.8,2.1c4.1-0.6,7.7-2.6,11.4-4.5c5.3-2.7,10.8-4.7,16.5-6.2c2.9-0.8,5.9-1.5,8.9-2.1c2.8-0.6,5.6-2,8.4-2.2
		c3.2-0.2,0.2,5.4-0.7,6.3c-4.7,5-11.2,8.8-16.3,13.5c-0.6,0.5-1.2,1.1-1.5,1.8c-1.3,2.8,3,4.9,5.1,5.6c2.5,0.8,5.1,0.7,7.7,0.6
		c16.4-0.8,32.6-2.9,48.7-6.3c36.3-7.6,71.5-20.9,104.6-37.6c32.9-16.6,64-37,92.2-60.7c12.3-10.3,24.4-20.6,35.5-32.2
		c7.6-8,15-16.1,21.8-24.8c4.4-5.5,8.2-11.5,12.3-17.3c4-5.6,9.1-9.8,10.8-16.7c1.6-6.4,6.3,4.5,6.9,6.2
		c12.1,34.1,35.6,62.2,61.1,87.2c7.9,7.8,16.8,14.6,25,22.1c12.5,11.5,26,21.9,38.6,33.2c13.3,11.8,15.4,35.4,16.8,52
		c2.3,27.5,5.3,56.3,1.4,83.7c-4.5,32.3-14.7,66.4-30.6,94.8c-5.2,9.4-11.5,18.3-18.6,26.5c-4.5,5.2-9.3,10.1-14.5,14.8
		c-1,1.5-1.3,3.2-1,5c0.4,2.7,21.9-5.5,24.1-6.3c15-5.5,29-12.1,42.3-21.2c1.9-1.3,3.7-2.6,5.6-4c16.4-12,31.1-26,46-39.7
		c7.7-7.1,14.3-15.2,20.7-23.5c19.9-26,41.3-78.6,42.5-82c1-3.9,2.9-11.7,2.9-14.3c1.3,0,5.8,0.2,8.2,1.7c1.5,2.3,7.2,6.5,11.6,9.4
		c8.9,5.9,11.5,17.9,13.9,27.2c0.8,3,1.1,6.2,1.3,9.3c2.4,30.7,1.8,62.6-7.8,92.2c-4.5,14-12.4,28.3-20.9,40.3
		c-10.6,14.9-24,27.6-38.4,38.8c-13.6,10.6-27.3,21.8-43.6,28c-10.3,3.9-22.9,5.2-33.6,2.8c-1.1-0.3-5.6-0.4-5.9,0.3
		c-0.3,0.7-0.5,2.8-0.5,3.8c-0.1,3.5,1.7,8,3.1,10.5c2.2,3.9,4.9,6.7,6.2,10.9c11,34.6,22.9,68.9,28.7,104.9
		c3.8,23,5.6,46.5,8.6,69.7c1.4,11.1,2.8,22.3,4.4,33.4c2.1,15.1,4,30.1,5.3,45.3c0.6,6.7,0.4,13.6,0.3,20.4c0,1.6,0,3.1,0,4.7
		c0,1,0,2,0,3c0.3,18.1-1,36.3-3.7,54.2c-2.5,16.6-7,32.7-10.2,49.1c-2.3,12.1-6.2,24.2-11.5,35.5c-2.8,5.9-6,11.5-9.6,16.9
		c-1.8,2.7-3.7,5.3-5.8,7.9c-1.7,2.1-3.8,3.7-4.7,6.3c9.5-2.3,17.5-8.5,26.1-13.1c6.4-3.4,13.6-6,19.1-10.8
		c5.8-5.1,8.4-12.7,12.1-19.4c3.5-6.5,6.8-13.1,9.4-20c3.6-9.7,5.7-20.2,4.5-30.6c-0.6-5-1.8-9.6-1.6-14.7
		c0.2-5.8,1.3-11.6,2.5-17.3c0.7-3.3,1.3-6.6,1.8-9.9c0.5-3.3,0.8-6.6,1.1-10c1.3-12.9,3.8-25.6,6.8-38.2c0.3-1.3,1.1-4.7,2.8-5.1
		c2.9-0.5,2.7,3.8,2.9,5.5c0.2,1.8,1.2,3.3,1.9,5c1.4,3.5,1.2,7.3,1,11c-0.8,15.2-0.5,30,0.3,45.1c0.3,5.3,0.6,10.4,0.2,15.8
		c-0.4,5.6-1.1,11.2-0.2,16.7c1.9,11.8,4.4,24.8,10.2,35.4c-0.6-1.6-0.4-3.1,0.7-4.5c1-1.4,2.6-2.2,4-3
		c17.7-9.7,35.4-19.8,51.7-31.7c8.3-6.1,16.3-12.6,23.7-19.8c6.3-6.1,16.7-14.8,19.1-23.5c0.9-3.5-2.5-7.4-4-10.5
		c-1.9-4-3.6-8-5.3-12.1c-2.8-7.1-5.6-14.3-6.4-21.9c-0.9-7.7-2.1-15.2-1.9-23c0.3-14.1,3.1-28.1,7.3-41.5
		c4.9-15.9,10.1-31.6,16.4-47c8.9-21.5,18-42.9,26.8-64.5c7.5-18.6,16.1-36.8,21.8-56c5.6-18.9,8.3-38.6,7.9-58.3
		c-0.2-10.1-1.3-20.3-3-30.2c-3.3-19.4-9.1-38.3-16.7-56.5c-2.6-6.1-5.3-12.1-8.3-18c-3.9-7.8-7.9-15.4-11.8-23.2
		c-2.6-5.2-5.1-10.4-7.4-15.7c-5.5-12.4-10.2-25.1-14.8-37.9c-4.5-12.7-9.9-25-14.5-37.7c-4.1-11.2-7.9-22.6-11.4-34
		c-3.6-11.5-7.5-22.6-11.4-34.1c-5.7-16.8-10.2-34-15.7-50.8c-6.6-20.2-13.4-40.4-19.7-60.7c-0.8-2.4-1.5-4.9-2.2-7.3
		c-3.4-11-6.1-22.1-9.7-33c-2-5.9-4.2-11.8-6.2-17.8c-2.1-6.3-3.3-12.7-5.6-18.9c-2.5-7-5-13.9-7.4-20.9c-4.1-11.7-8-23.5-11.8-35.3
		c-4.9-15.4-13.2-29.7-19.6-44.5c-4.3-10-8.7-20-14-29.4c-5.3-9.5-11.7-18.1-17.8-27.1c-6.6-9.7-13.8-19.1-22-27.5
		c-18.2-18.6-38.9-34.5-63.6-43.2c-19.4-6.9-41.6-12-62.2-11.5C884.9,189.9,878,190.2,871,190.8"/>
	<path class="st20" d="M1116.9,654.1c-2.5-1.5-4.9-2.9-7.5-4.2c-1-0.5-3.1-1-3.8-1.9c-0.7-0.9-0.5-3.1-0.6-4.2
		c-0.6-6.9-0.4-13.8,0.4-20.7c0.4-3.3,0.8-7-1.1-9.7c-0.8-1-1.9-1.8-2.4-3c-0.4-0.9-0.5-1.9-0.6-2.8c-0.5-7.2-0.4-14.4,0.2-21.6
		c0.1-1,0.2-2,0.8-2.9c0.5-0.8,1.7-1.4,2.6-1c0.5,0.2,0.9,0.7,1.2,1.2c2.9,3.9,5.7,7.9,8.6,11.8c0.7,1,1.4,2.1,1.1,3.2
		c-0.2,0.6-0.6,1.1-0.6,1.6c0,0.5,0.2,0.9,0.5,1.3c1.7,3.1,3.4,6.1,5.2,9.2c1.2,2.1,2.4,4.3,2.2,6.6c-0.1,1.7-0.9,3.4-0.5,5
		c0.5,2.6,3.4,4,4.3,6.5c1,2.9-0.9,6-0.3,9c0.4,1.9,1.8,3.5,2.9,5.1c3.6,5.5,3.7,12.8,1.6,19.1c-1.8-0.6-3.4-1.5-5-2.5
		c-2.7-1.6-5.4-3.2-8.1-4.8C1117.4,654.5,1117.1,654.3,1116.9,654.1z"/>
	<path class="st20" d="M876.6,191.4c2.7,0,5.7,2.7,4.4,5.1c-1,1.8-3.5,1.9-5.5,2.3c-7.5,1.7-10.5,10.5-12.3,17.9
		c-3.8,15.8-7.5,31.6-11.3,47.3c-0.9,3.9-1.9,7.8-2.1,11.8c-0.4,7.1,1.5,14.1,3.1,21c2,8.5,3.5,17.2,3.7,25.9
		c0.5,21.6-6.9,42.9-5.8,64.5c0.4,8.2,1.5,17.8-4.5,23.3c-1.9,1.7-4.8,3.4-5.6,6c-0.3,1.1,1,3.9-0.8,2.7c-1.4-0.9-2.8-3.1-2.8-4.8
		c0-1.7,0.7-3.5,0.9-5.1c0.3-1.9,0.6-3.9,0.8-5.8c0.5-4.7,0.8-9.4,0.7-14.1c-0.1-7.4-1-14.9-0.4-22.2c1.1-13,7.1-25.5,6.6-38.6
		c-0.5-11.3-5.8-21.9-8.1-33c-5.3-25.1,4.7-50.4,12.1-75c1.9-6.2,3.6-12.8,1.9-19.1c-2.1-7.7-8.9-13.2-15.2-18c0-1.9,2.8-2,4.6-1.5
		C845.8,183.4,873.9,191.4,876.6,191.4z"/>
	<path class="st20" d="M554.3,518.8c-3.8,3.5-7.7,6.7-12.2,9.2c-2.7,1.5-5.7,2.8-8.8,2.9c-3.9,0-4.8-1.9-1.8-4.7
		c1.8-1.7,3.4-3.7,5-5.7c19.7-24.9,37.8-51,54.2-78.2c2.2-3.7,4.5-7.4,8-9.9c1.1-0.8,3-1.2,3.5,0c0.2,0.5,0.1,1.1,0,1.6
		c-4,17.3-8.3,34.9-17.6,50.1c-6.5,10.7-15.3,19.8-24.1,28.6C558.5,514.8,556.4,516.8,554.3,518.8z"/>
	<path class="st20" d="M489.1,561.8c-3.1,2.6-7.2,4.3-11,5.8c-5.9,2.3-17.4,4.9-14.4-5.3c7.2-25.1,18.4-48.8,27.6-73.2
		c2.4-6.4,4.7-12.8,8.1-18.8s7.9-11.4,13.8-14.8c1.4-0.8,3.7-1.1,4.1,0.5c0.2,0.9-0.5,1.7-1,2.4c-1.9,3-1.3,6.9-1.7,10.4
		c-0.4,3.7-2,7.1-3.4,10.6c-3.1,8-5.1,16.3-7,24.7c-3.1,14.1-5.9,28.2-8.3,42.4c-0.7,4.3-1.5,8.7-4,12.3
		C491.1,560,490.1,561,489.1,561.8z"/>
	<path class="st20" d="M974.9,565.8c-0.1,0-0.1-0.1-0.2-0.1c-8.5-5.3-15.6-15.3-15.6-25.6c0-14.3-1.1-28.6-3.1-42.8
		c-1.7-12.5-2.6-27.6-7.5-39.3c-1.5-3.6-3.7-6.5-4.6-10.4c1.6-0.2,5.7,0.1,6.9,1.4c1.5,1.5,1.9,4.5,2.9,6.4c1.5,2.9,3.5,5.6,5.2,8.4
		c8.8,14,13.4,30.7,18.2,46.4c4.1,13.4,6,27.5,9.7,40.8c1,3.6,1.5,13.3-1.5,16.2C982.7,569.7,977.5,567.3,974.9,565.8z"/>
	<path class="st21" d="M561.3,534.5c0.1,0,0.3,0,0.4,0c0.9,0.1,1.4,1.4,1.3,2.4c-0.2,1-0.8,1.9-1.4,2.7
		c-7.9,10.7-12.7,24.1-21.5,33.9c-2.6,2.9-5.6,5.5-9.1,6.8c-2.3,0.8-9.9,1.4-5.7-3.4c1-1.1,2.3-1.7,3.4-2.7c0.9-0.9,1.6-2,2.3-3.2
		c8.1-13.1,18.5-24.2,28.7-35.3C560.1,535.2,560.7,534.5,561.3,534.5z"/>
	<g>
		<path class="st22" d="M866.1,531.2c36.5,7,68.3,27.4,93.1,54.6c1.6,1.7,3.1,3.5,4.6,5.3c2.2,2.6,10.6,11.1,2.1,12.5
			c-4.2,0.7-8-2.1-11.6-3.8c-4.5-2.2-9.4-3.7-14-5.3c-9.4-3.3-19.1-6.1-28.8-8.4c-37.8-8.9-75.8-8.4-114.2-6.1
			c-7.2,0.4-13,0.4-14.5-8c-1.7-10.1,2-20.2,9.5-27C811.7,527.8,840.2,526.2,866.1,531.2z"/>
	</g>
</g>
<g id="Olho_e">
	<path class="st23" d="M630.9,627.8c4.4,2,8.8,4,13.1,6.4c2.4,2.8,5.7,6.9,4.4,10.9c-0.9,2.6-3.7,4.1-6.4,4.8
		c-4.3,1.1-9,0.9-13.2-0.5c-3-1-5.7-2.7-8.6-3.9c-3.3-1.4-6.9-2.3-9.5-4.6c-2.2-2-3.6-4.9-3.6-7.9s1.5-5.9,3.9-7.7
		c2.5-1.8,5.9-2.1,8.9-1.6c3.1,0.5,5.9,1.8,8.8,3.1C629.4,627.2,630.2,627.5,630.9,627.8z"/>
	<path class="st24" d="M632,710.8c1.7-2.8,1.7-6.3,2.7-9.5c2.8,0.4,6.4,2.3,8.3,4.5c3.2,4,6.2,7.7,8.6,12.1c0.2,0.4,0.9,0.9,0.9,1.4
		c0,0.3-1.5,2.9-2,3.7c-4.7,6.3-10,9.8-17.6,13.9c-17.3,9.5-35.9,17.2-56.1,15.4c-7.1-0.6-14.1-2.1-21-4
		c-8.9-2.4-17.9-5.5-25.6-10.6c-7.8-5.3-14.5-12.1-20.6-19.3c-3.8-4.5-4.8-10.2-4.6-16.1c0.3-12.9,9.4-24.7,20.5-30.5
		c0.5,0.9,0.6,1.9,0.5,3c-0.1,0.7-0.2,1.5-0.3,2.2c-0.5,2.6-0.9,5.2-1.2,7.8c-0.9,7.9,2.1,14,3.5,21.6"/>
	<path class="st25" d="M537.2,652c0,0.3-2.3,1.4-2.3,1.7c-2.5,1.8-3.8,4.9-5.5,9.1c-0.6,4.3-1.7,8.3-3.5,12c0.1-1.1,0-2.1-0.5-3
		c-12.2,6.6-19.1,16.8-20.5,30.5c-0.1,4.3,1.3,9.2,2.7,13.2c-8.9-12.1-11.6-29.5-9-44.7c0.5-2.1,0.8-4.5,2.3-5.3
		c2.7-4.9,5.6-4.5,9.6-8.6c8.2-4.2,20.6-8,29.7-10.1C547.1,646.4,544.6,646.6,537.2,652z"/>
	<path class="st26" d="M647,691.8c1.3,0.8,2.5,1.8,3.5,3c1.5,3.7,3,7.4,4.5,11c1.1,4.7,1.1,9.3,0,14c-2.7,3.4-6.5,6.4-9.8,9
		c2-3,4.8-6,6.8-9c1.2-5.2,1.3-10.5,0.5-16C649.3,700.3,647.5,696.3,647,691.8z"/>
	<path class="st26" d="M635.9,678.9c3.4,3.1,9.3,9.4,11.1,12.8c2.9,3.5,6.1,7.8,7.1,11.8c0.8,5.5-0.9,11-2.1,16.2
		c-2.5-4.9-5.5-9.6-9-14c-1.9-2.2-4.7-3.6-7.5-4.4C636.3,695.1,636.1,685.3,635.9,678.9z"/>
	<path class="st27" d="M647.8,686.8c3.4,5.4,8.2,16.4,7.2,18.9c-0.5-0.4-1.1-2.6-1.6-3.8c-0.5-1.3-1.4-2.4-2.1-3.6
		c-4.4-7-10.2-13.5-15.6-19.7"/>
	<path class="st28" d="M540.8,648.4c5.5-2.6,12-1.7,18.2-1.3c6.7,0.5,13.4,1.1,20,2.4c18.2,3.6,35.2,12.2,50.3,23
		c2.8,2,6,4.4,7.1,7.8c1.2,3.9,0.7,8.2,0.4,12.1c-0.4,5.8-1.2,11-3.2,16.5c-2.4,6.6-5.9,13.6-11.2,18.4c-5.4,4.9-12.8,7.8-19.5,10.4
		c-17.1,6.6-35.9,6.8-51.8-3c-4-2.5-7.7-5.5-10.9-9c-8-8.6-13.8-20.1-15.3-31.8c-1.4-11.2,0.9-23.2,5.5-33.4
		c1.6-3.5,3.6-6.9,6.4-9.6C538.1,649.9,539.4,649,540.8,648.4z"/>
	<path class="st27" d="M534.9,643.5c4.4-0.8,8.8-1.3,13.2-1.6c6.8-0.4,13.6-0.1,20.3,0.5c7.3,0.7,14.6,2,21.5,4.5
		c6.9,2.5,13.5,5.8,20,9.2c0.5,0.3,1,0.5,1.6,0.8c10.6,5.6,21.1,11.3,29.2,20.3c1.8,2,3.6,4.1,5.1,6.4c1.1,1.7,3.7,4.9,3.4,7
		c-0.8,0.2-1.5-0.5-2.1-1c-5-4.8-10.1-9.7-15.4-14.3c-5.5-4.7-11.2-8.6-17.7-11.8c-13.1-6.4-27.4-11.5-41.7-14.1
		c-10.4-1.9-21.2-3.3-31.7-1.6c-5.7,0.9-11.3,2.6-16.8,4.7c-2.7,1-5.4,2.1-8,3.2c-2.4,1-5.2,1.9-7.3,3.6c-4.7,3.9-8.5,10-10.5,15.8
		c-0.4-2-0.5-5.2,0.1-7.1c3.8-12.7,16.8-19,28.6-22.4C529.4,644.7,532.2,644.1,534.9,643.5z"/>
</g>
<g id="Olho_d">
	<path class="st23" d="M829.1,643.8c-1.6,0.6-3.2,1.1-4.8,1.7c-4.7,1.8-9.4,6.1-14.6,5c-3.9-0.8-6.3-3.4-7.1-7.3
		c-1-5.8,1.9-8.4,7-10.7c8.8-3.9,17.8-7.9,27.4-8.2c3-0.1,6.4,0.3,8.2,2.7c2.1,2.6,1.4,6.5-0.6,8.9c-1.5,1.8-3.5,3-5.6,4.1
		C835.9,641.5,832.5,642.5,829.1,643.8z"/>
	<path class="st29" d="M921.9,677.3c0.1,0,0.2,0,0.3,0c7.4,0.5,16.2,7,21.9,11.4c0.7,0.5,1.4,1.1,1.9,1.8c3.2,4.2,1.1,12.2-1.2,16.3
		c-14.7,26.8-43.4,45.3-74,46.7c-16.9,0.8-33.8-3.4-49-10.7c-7.7-3.7-15-8.1-21.8-13.3c-7.2-5.4-8.5-11.1-4.9-19.5
		c1.8-4.3,4.5-8.5,8.5-10.9c6-3.5,13.9-2.7,20.6-3.7c5-0.7,10-1.6,15-2.4c12.4-2.1,24.8-4.3,37.2-6.6c13.9-2.6,28-4,41.5-8.5
		C919.3,677.7,920.6,677.2,921.9,677.3z"/>
	<path class="st30" d="M936.6,657.7c3,2.6,5.7,5.5,7.8,8.5c6.8,9.9,7.3,23.5,2.8,34.3c0.2-3.1-1.3-6.2-3-8.8
		c-3.6-5.3-9.2-8.7-14.9-11.4c-3-1.4-6-1.4-8.1-4.4c-2.5-3.5-3.2-8.1-4.2-12.2c-0.3-1-0.6-2-1.1-2.8c-1.1-1.6-1.6-2.9-2.5-4.6
		c-1.1-2.2-3.2-3.8-3.9-6.2c-1.7-5.7,9.6-1.8,12.1-1C927,651,932.1,654,936.6,657.7z"/>
	<path class="st31" d="M812.8,675.6c-0.8,8.3-0.6,16.8,0.8,25.1c0.2,1.2,0.5,2.9,0.5,3.5c0,0-1.8-0.9-2.6-1.3
		c-1-0.5-1.7-1.3-2.3-2.2c-0.4-0.6-0.9-2.4-1.8-2.3c-1.3,0.1-2.6,2.4-3.4,3.3c-1.2,1.5-2.4,3.1-3.4,4.7c-2.7,4.2-6.7,8.8-5.7,14
		c0.2,1.1,0.5,3.9,0.5,4.3c0,0-1-1.5-1.4-2.1c-1.3-2-2.7-4.2-3.3-6.6c-1-4.4-0.3-8.9,0.2-13.3c0.2-1.5,0.5-3,1.1-4.4
		c0.5-1.2,1.3-1.7,2.1-2.6C799.8,688.6,806,681.8,812.8,675.6z"/>
	<path class="st32" d="M910,648.1c5.8,1.4,9.1,15,10.6,19.9c4.1,13.6,5.1,28.8-0.1,42.3c-11.7,30.8-51.4,39.7-79,26.1
		c-10.3-5.1-18.8-13.8-24-24.1c-4.5-8.9-9.7-24.5-4.9-34.1c3.1-6.2,10.3-9.6,15.9-12.8c7.4-4.3,15.1-7.9,23.2-10.8
		C869.2,648.3,891.6,643.6,910,648.1z"/>
	<path class="st33" d="M918.1,644.7c0.2,0,0.4,0.1,0.6,0.1c8.7,2,17,5.2,23.1,11.9c5.9,6.6,7.9,10.8,9.3,19.5c0.3,2,0,8.4-1.1,10.9
		c-0.5-1.7-0.1-3.9-0.2-5.6c-0.2-1.9-0.4-3.4-1-5.3c-1.4-4.5-4.1-8.5-7.2-11.9c-6.8-7.6-16.1-12.8-26-15.1
		c-5.9-1.4-11.9-1.8-17.9-1.8c-11.6-0.1-23.2,1.3-34.5,4.1c-31.8,7.9-60.9,28.1-73.2,59.3c-0.6-1.5-0.9-4.4-0.9-5.8
		c0-2.1,0.7-4.2,1.4-6.1c1.8-4.7,4.2-9.2,7.1-13.3c5.8-8.2,13.3-15.2,21.4-21C847.4,644.5,884.3,637.1,918.1,644.7z"/>
</g>
<g id="Boca_e_nariz">
	<path class="st34" d="M768.9,868.9c0.4,0.3,0.8,0.7,1.1,1.1c1,1.4,1.3,3.2,1.2,4.9c-0.2,3.4-1.9,6.5-3.7,9.4
		c-3.7,5.9-8,11.5-13.4,15.9c-9.9,8-23.3,11.5-36,9.8c-10.3-1.4-20.1-6.1-27.9-13.1c-7.2-6.4-14.4-17.6-11.9-27.6
		c0.3-1.1,0.8-2.3,1.9-2.8c0.6-0.3,1.3-0.3,1.9-0.3c26.4,0.3,52.7,0.6,79.1,0.9C763.9,867.2,766.9,867.4,768.9,868.9z"/>
	<path class="st35" d="M644.6,944.6c16,6.7,33.4,9,50.8,10.2c25,1.7,51,2.4,75.9-1.3c14.8-2.2,29.5-6.3,42.7-13.5
		c3.9-2.2,10.8-6.6,14.9-2.6c2.5,2.4,1.9,6.7-0.2,9.4c-3.4,4.2-10.1,6.2-14.9,8.2c-6.8,2.8-13.8,5.2-20.9,6.9
		c-9.8,2.3-19.7,4-29.7,5.2c-20.1,2.4-40.3,2.7-60.5,1.8c-7.2-0.3-14.2-0.9-21.3-2.1c-3.3-0.5-6.5-1.1-9.7-1.8
		c-9.4-2.1-18.6-4.9-27.7-8.1c-7.5-2.7-18.4-4.9-24.1-10.7c-2.5-2.5-4.4-7.7-1.5-10.6c3.1-3.1,8.4-0.6,12.1,1.8
		C635.1,940.1,639.8,942.6,644.6,944.6z"/>
</g>
<path id="Oculos" class="st36" d="M489.9,582.2c-16.1,2-19.1,2.5-37.9,6.1c-8.8,1.7-40.3,7.9-65.9,13l-15.5,3.1l-0.1,14.8
	c-0.1,14.5,0,14.8,0.4,16.9c1.2,5.2,3.7,10.2,7.9,15.4c0.8,1,3.1,3.5,5.1,5.6c4.8,5,6.9,7.7,9.5,12.6c3.4,6.2,5.6,12.5,8.7,24.8
	c6,23.8,14.4,47.7,26.4,74.8c4.4,10,7.6,14.8,13.9,21.1c8.1,8.1,18.4,14.3,33.2,20.3c13.2,5.2,27.3,8.7,42.4,10.3
	c2.4,0.3,5,0.7,5.7,0.9c1.3,0.4,2.3,0.4,19,0.4h17.6l7.3-1.1c15.8-2.5,20.4-3.4,27-5.4c18.4-5.5,34.6-15.8,48-30.3
	c21.6-23.5,36.7-49,45.3-77.1c0.7-2.2,1.8-6,2.4-8.6c1.3-5,2.8-9.3,4.7-14.2c2-5.2,5.3-12.9,6.1-14.2c1.1-1.9,3.2-3.8,5.1-4.8
	c3.2-1.5,3.6-1.6,12.9-1.5c10.8,0.1,14.1,0.3,16.4,1.1c2.5,0.8,4.6,2.2,6.6,4.1c2.1,2.1,3.4,4.1,5.4,8.3c4.2,8.8,6.5,14.5,10.3,25.8
	c5.6,16.5,9.8,27.1,15.3,38.3c13.5,27.2,28.7,44.8,50.1,57.9c17.8,10.9,40.9,18,66.7,20.5c6,0.6,18.7,0.8,24.5,0.4
	c15.1-0.9,29.1-3.8,43.3-8.8c22-7.8,39.5-20.2,52.3-37.1c5.9-7.7,11.1-17.4,14.9-27.4c2.2-5.7,4.7-14.2,8.7-29.3
	c9.5-35.3,10.5-38.8,14.4-47.6c1.7-3.8,5.3-10.8,6.3-12.4c1.3-2,4.2-4.7,7.1-6.7c3.8-2.6,5.7-5,6.8-8.3c0.4-1.1,0.4-2.7,0.4-15.7
	c0.1-15.7,0-16.4-1.1-18.8c-0.7-1.4-2.6-3.2-4.3-4c-0.8-0.4-4.8-1.4-10.8-2.8c-5.3-1.2-14.7-3.4-20.9-4.9
	c-41.4-10-59.8-13.4-81.7-15.1c-2.8-0.2-4.4-0.4-5.4-0.8c-1.3-0.4-1.8-0.5-18.4-0.5h-17.1l-8.4,1c-11.3,1.4-14.9,1.8-19.4,2.5
	c-7.7,1.1-33.1,5.7-69.7,12.5c-41.8,7.8-52.9,9.5-71.7,10.9c-5.2,0.4-19.7,0.5-24.9,0.2c-18.3-1-42.2-4.6-77.1-11.5
	c-39.7-7.8-67.4-11.8-100.7-14.5c-3.8-0.3-7.8-0.7-8.7-0.9c-1.5-0.3-4.1-0.3-15.9-0.3l-14.1,0L489.9,582.2z M564.8,597.7
	c27,1.3,53.8,7.4,77.1,17.3c14.2,6.1,23.5,13,29.5,22c7.6,11.6,9.7,25.2,6.3,40.9c-1.7,7.7-6.4,23.1-10.1,32.7
	c-7.9,20.9-18,38.9-29.6,53.1c-16.4,19.9-37.8,32.7-64.6,38.6c-23.4,5.1-47.8,4.8-73.6-1c-2.5-0.6-5.9-1.4-7.5-1.9
	c-19.8-5.7-35.4-17.2-45.6-33.6c-2.1-3.4-5.3-9.7-6.8-13.5c-2.9-7.2-7-19.3-9.6-28.2c-5.1-17.5-7.9-32.6-9.3-49.9
	c-0.4-4.8-0.5-19.4-0.2-22.7c1.6-16.8,9.6-28.6,24.7-36.4c9.7-5,21.5-8.7,35.6-11c10.4-1.7,23.1-3,53.1-5.4
	c9.3-0.7,17.2-1.4,17.5-1.4C552.4,597.2,559.3,597.4,564.8,597.7z M902.3,598.8c31.8,0.9,55.5,3.6,76.8,8.9
	c8.6,2.2,14.1,4.1,19.9,7.2c12.5,6.6,20.8,16.4,23.6,28.2c1.2,5,1.7,15.3,1.3,25.1c-1,23.1-5.4,44.5-15.2,73.4
	c-2.9,8.5-4.5,12.6-6.8,17.1c-4.2,8.2-9,14.7-15.6,21.2c-12.1,11.7-25.4,18.2-45.3,22.2c-31.4,6.2-61.1,4.7-85.9-4.5
	c-16.3-6-29.4-14.2-41.2-25.8c-10.9-10.7-18.7-22-26.7-38.7c-11.9-24.9-17.8-41.2-20.6-56.6c-3.1-17-0.1-31.3,8.9-42.6
	c4.8-5.9,10.8-10.7,19.1-15c18.4-9.5,39.7-15.8,63.2-18.8C871.9,598.4,879.1,598.1,902.3,598.8z"/>
</svg>
