<?xml version="1.0" encoding="UTF-8" standalone="no" ?>
<!DOCTYPE svg PUBLIC "-//W3C//DTD SVG 1.1//EN" "http://www.w3.org/Graphics/SVG/1.1/DTD/svg11.dtd">
<svg xmlns="http://www.w3.org/2000/svg" xmlns:xlink="http://www.w3.org/1999/xlink" version="1.1" width="40" height="40" viewBox="0 0 40 40" xml:space="preserve">
<desc>Created with Fabric.js 3.6.6</desc>
<defs>
</defs>
<g transform="matrix(0.08 0 0 0.08 33.12 21.36)"  >
<g style=""   >
		<g transform="matrix(1 0 0 1 -187.57 99.96)" id="Layer_1"  >
<path style="stroke: rgb(255,255,255); stroke-width: 20; stroke-dasharray: none; stroke-linecap: butt; stroke-dashoffset: 0; stroke-linejoin: miter; stroke-miterlimit: 4; fill: rgb(194,19,37); fill-rule: nonzero; opacity: 1;"  transform=" translate(-324.43, -483.96)" d="M 465.391 381.102 C 464.851 381.43 447.042 378.442 424.726 376.931 C 406.501 375.696 385.27 375.743 367.982 376.914 C 353.963 377.863 335.544 370.816 333.343 379.191 C 325.105 410.542 307.38 437.846 284.832 459.119 C 267.869 475.122 248.455 487.257 227.457 494.734 C 202.458 481.892 190.652 453.33 201.305 428.287 C 209.754 408.424 219.585 386.547 201.435 381.542 C 188.222 377.898 180.967 390.555 175.888 404.087 C 166.158 430.01 147.669 456.835 142.4 488.608 C 136.838 522.15 142.382 557.755 171.392 577.861 C 238.954 624.687 312.292 548.833 389.617 529.765 C 417.641 522.854 448.402 523.968 473.092 509.668 C 491.633 498.929 503.856 481.133 507.325 461.152 C 512.905 429.015 496.186 397.086 465.391 381.102 Z" stroke-linecap="round" />
</g>
		<g transform="matrix(1 0 0 1 -187.57 102.04)" id="Layer_1"  >
<path style="stroke: rgb(255,255,255); stroke-width: 20; stroke-dasharray: none; stroke-linecap: butt; stroke-dashoffset: 0; stroke-linejoin: miter; stroke-miterlimit: 4; fill: none; fill-rule: nonzero; opacity: 1;"  transform=" translate(-324.43, -486.04)" d="M 333.343 379.191 c -8.238 31.351 -25.963 58.655 -48.511 79.928 c -16.963 16.003 -36.377 28.138 -57.376 35.615 c -24.999 -12.842 -36.805 -41.404 -26.152 -66.447 c 8.449 -19.863 18.28 -41.74 0.13 -46.745 c -13.213 -3.644 -20.468 9.013 -25.547 22.545 c -9.73 25.923 -28.219 52.748 -33.488 84.521 c -5.562 33.542 -0.018 69.147 28.992 89.253 c 67.562 46.826 140.9 -29.028 218.226 -48.096 c 28.024 -6.911 58.785 -5.797 83.475 -20.097 c 18.541 -10.739 30.764 -28.535 34.233 -48.515 c 5.58 -32.137 -11.139 -64.066 -41.934 -80.05" stroke-linecap="round" />
</g>
		<g transform="matrix(1 0 0 1 -116.72 -115.01)" id="Layer_1"  >
<polygon style="stroke: none; stroke-width: 1; stroke-dasharray: none; stroke-linecap: butt; stroke-dashoffset: 0; stroke-linejoin: miter; stroke-miterlimit: 4; fill: rgb(194,19,37); fill-rule: nonzero; opacity: 1;"  points="0.08,-14.82 54.4,95.99 119.49,-95.99 -119.49,-95.99 -54.55,95.65 " />
</g>
		<g transform="matrix(1 0 0 1 -116.72 -115.01)" id="Layer_1"  >
<polygon style="stroke: rgb(255,255,255); stroke-width: 20; stroke-dasharray: none; stroke-linecap: butt; stroke-dashoffset: 0; stroke-linejoin: miter; stroke-miterlimit: 4; fill: none; fill-rule: nonzero; opacity: 1;"  points="0.08,-14.82 54.4,95.99 119.49,-95.99 -119.49,-95.99 -54.55,95.65 " />
</g>
		<g transform="matrix(1 0 0 1 -182.54 -4.42)" id="Layer_1"  >
<circle style="stroke: none; stroke-width: 1; stroke-dasharray: none; stroke-linecap: butt; stroke-dashoffset: 0; stroke-linejoin: miter; stroke-miterlimit: 4; fill: rgb(194,19,37); fill-rule: nonzero; opacity: 1;"  cx="0" cy="0" r="40.945" />
</g>
		<g transform="matrix(1 0 0 1 -182.54 -4.42)" id="Layer_1"  >
<circle style="stroke: rgb(255,255,255); stroke-width: 20; stroke-dasharray: none; stroke-linecap: butt; stroke-dashoffset: 0; stroke-linejoin: miter; stroke-miterlimit: 4; fill: none; fill-rule: nonzero; opacity: 1;"  cx="0" cy="0" r="40.945" />
</g>
		<g transform="matrix(1 0 0 1 -49.16 -4.42)" id="Layer_1"  >
<circle style="stroke: rgb(255,255,255); stroke-width: 20; stroke-dasharray: none; stroke-linecap: butt; stroke-dashoffset: 0; stroke-linejoin: miter; stroke-miterlimit: 4; fill: rgb(194,19,37); fill-rule: nonzero; opacity: 1;"  cx="0" cy="0" r="40.945" />
</g>
		<g transform="matrix(1 0 0 1 -49.16 -4.42)" id="Layer_1"  >
<circle style="stroke: rgb(255,255,255); stroke-width: 20; stroke-dasharray: none; stroke-linecap: butt; stroke-dashoffset: 0; stroke-linejoin: miter; stroke-miterlimit: 4; fill: none; fill-rule: nonzero; opacity: 1;"  cx="0" cy="0" r="40.945" />
</g>
		<g transform="matrix(1 0 0 1 -316.43 -4.12)" id="Layer_1"  >
<circle style="stroke: none; stroke-width: 1; stroke-dasharray: none; stroke-linecap: butt; stroke-dashoffset: 0; stroke-linejoin: miter; stroke-miterlimit: 4; fill: rgb(194,19,37); fill-rule: nonzero; opacity: 1;"  cx="0" cy="0" r="40.945" />
</g>
		<g transform="matrix(1 0 0 1 -316.43 -4.12)" id="Layer_1"  >
<circle style="stroke: rgb(255,255,255); stroke-width: 20; stroke-dasharray: none; stroke-linecap: butt; stroke-dashoffset: 0; stroke-linejoin: miter; stroke-miterlimit: 4; fill: none; fill-rule: nonzero; opacity: 1;"  cx="0" cy="0" r="40.945" />
</g>
</g>
</g>
<g transform="matrix(1 0 0 1 405 100)"  >
	<image style="stroke: none; stroke-width: 0; stroke-dasharray: none; stroke-linecap: butt; stroke-dashoffset: 0; stroke-linejoin: miter; stroke-miterlimit: 4; fill: rgb(0,0,0); fill-rule: nonzero; opacity: 1;"  xlink:href="https://placekitten.com/110/150" x="-55" y="-75" width="110" height="150"></image>
</g>
</svg>